<svg width="14" height="14" viewBox="0 0 14 14" fill="none" xmlns="http://www.w3.org/2000/svg">
<path d="M13.3 0.471942C13.2075 0.379239 13.0976 0.305691 12.9766 0.25551C12.8556 0.205328 12.7259 0.179498 12.595 0.179498C12.464 0.179498 12.3343 0.205328 12.2134 0.25551C12.0924 0.305691 11.9825 0.379239 11.89 0.471942L6.99998 5.35194L2.10998 0.461942C2.0174 0.36936 1.90749 0.29592 1.78652 0.245815C1.66556 0.19571 1.53591 0.169922 1.40498 0.169922C1.27405 0.169922 1.1444 0.19571 1.02344 0.245815C0.902472 0.29592 0.792561 0.36936 0.699979 0.461942C0.607397 0.554524 0.533957 0.664435 0.483852 0.785399C0.433747 0.906363 0.407959 1.03601 0.407959 1.16694C0.407959 1.29787 0.433747 1.42752 0.483852 1.54849C0.533957 1.66945 0.607397 1.77936 0.699979 1.87194L5.58998 6.76194L0.699979 11.6519C0.607397 11.7445 0.533957 11.8544 0.483852 11.9754C0.433747 12.0964 0.407959 12.226 0.407959 12.3569C0.407959 12.4879 0.433747 12.6175 0.483852 12.7385C0.533957 12.8594 0.607397 12.9694 0.699979 13.0619C0.792561 13.1545 0.902472 13.228 1.02344 13.2781C1.1444 13.3282 1.27405 13.354 1.40498 13.354C1.53591 13.354 1.66556 13.3282 1.78652 13.2781C1.90749 13.228 2.0174 13.1545 2.10998 13.0619L6.99998 8.17194L11.89 13.0619C11.9826 13.1545 12.0925 13.228 12.2134 13.2781C12.3344 13.3282 12.464 13.354 12.595 13.354C12.7259 13.354 12.8556 13.3282 12.9765 13.2781C13.0975 13.228 13.2074 13.1545 13.3 13.0619C13.3926 12.9694 13.466 12.8594 13.5161 12.7385C13.5662 12.6175 13.592 12.4879 13.592 12.3569C13.592 12.226 13.5662 12.0964 13.5161 11.9754C13.466 11.8544 13.3926 11.7445 13.3 11.6519L8.40998 6.76194L13.3 1.87194C13.68 1.49194 13.68 0.851942 13.3 0.471942Z" fill="black"/>
</svg>
