<svg width="18" height="13" viewBox="0 0 18 13" fill="none" xmlns="http://www.w3.org/2000/svg">
<path d="M1 12.762H17C17.55 12.762 18 12.312 18 11.762C18 11.212 17.55 10.762 17 10.762H1C0.45 10.762 0 11.212 0 11.762C0 12.312 0.45 12.762 1 12.762ZM1 7.76196H17C17.55 7.76196 18 7.31196 18 6.76196C18 6.21196 17.55 5.76196 17 5.76196H1C0.45 5.76196 0 6.21196 0 6.76196C0 7.31196 0.45 7.76196 1 7.76196ZM0 1.76196C0 2.31196 0.45 2.76196 1 2.76196H17C17.55 2.76196 18 2.31196 18 1.76196C18 1.21196 17.55 0.761963 17 0.761963H1C0.45 0.761963 0 1.21196 0 1.76196Z" fill="black"/>
</svg>
